<mxfile host="Electron" modified="2023-07-31T21:58:51.363Z" agent="Mozilla/5.0 (X11; Linux x86_64) AppleWebKit/537.36 (KHTML, like Gecko) draw.io/21.6.5 Chrome/114.0.5735.243 Electron/25.3.1 Safari/537.36" etag="VP0whhvSc5U3vsndokAF" version="21.6.5" type="device">
  <diagram name="Page-1" id="lyi1PZBnnc3ovnYoeUSK">
    <mxGraphModel dx="1434" dy="871" grid="1" gridSize="10" guides="1" tooltips="1" connect="1" arrows="1" fold="1" page="1" pageScale="1" pageWidth="827" pageHeight="1169" math="0" shadow="0">
      <root>
        <mxCell id="0" />
        <mxCell id="1" parent="0" />
        <mxCell id="UMcilBQ5tU9RGvbNpatL-11" style="edgeStyle=orthogonalEdgeStyle;rounded=0;orthogonalLoop=1;jettySize=auto;html=1;exitX=1;exitY=0.5;exitDx=0;exitDy=0;entryX=0;entryY=0.5;entryDx=0;entryDy=0;" edge="1" parent="1" source="UMcilBQ5tU9RGvbNpatL-1" target="UMcilBQ5tU9RGvbNpatL-10">
          <mxGeometry relative="1" as="geometry" />
        </mxCell>
        <mxCell id="UMcilBQ5tU9RGvbNpatL-13" style="edgeStyle=orthogonalEdgeStyle;rounded=0;orthogonalLoop=1;jettySize=auto;html=1;exitX=1;exitY=0.5;exitDx=0;exitDy=0;entryX=0;entryY=0.5;entryDx=0;entryDy=0;" edge="1" parent="1" source="UMcilBQ5tU9RGvbNpatL-1" target="UMcilBQ5tU9RGvbNpatL-12">
          <mxGeometry relative="1" as="geometry" />
        </mxCell>
        <object label="" id="UMcilBQ5tU9RGvbNpatL-1">
          <mxCell style="shape=process;whiteSpace=wrap;html=1;backgroundOutline=1;" vertex="1" parent="1">
            <mxGeometry x="390" y="440" width="120" height="60" as="geometry" />
          </mxCell>
        </object>
        <mxCell id="UMcilBQ5tU9RGvbNpatL-2" value="Split Tone Class" style="text;html=1;strokeColor=none;fillColor=none;align=center;verticalAlign=middle;whiteSpace=wrap;rounded=0;" vertex="1" parent="1">
          <mxGeometry x="420" y="455" width="60" height="30" as="geometry" />
        </mxCell>
        <mxCell id="UMcilBQ5tU9RGvbNpatL-7" style="edgeStyle=orthogonalEdgeStyle;rounded=0;orthogonalLoop=1;jettySize=auto;html=1;exitX=1;exitY=0;exitDx=0;exitDy=22.5;exitPerimeter=0;entryX=0;entryY=0.5;entryDx=0;entryDy=0;" edge="1" parent="1" source="UMcilBQ5tU9RGvbNpatL-4" target="UMcilBQ5tU9RGvbNpatL-5">
          <mxGeometry relative="1" as="geometry" />
        </mxCell>
        <mxCell id="UMcilBQ5tU9RGvbNpatL-4" value="" style="shape=cylinder3;whiteSpace=wrap;html=1;boundedLbl=1;backgroundOutline=1;size=15;" vertex="1" parent="1">
          <mxGeometry x="70" y="447" width="60" height="40" as="geometry" />
        </mxCell>
        <mxCell id="UMcilBQ5tU9RGvbNpatL-9" style="edgeStyle=orthogonalEdgeStyle;rounded=0;orthogonalLoop=1;jettySize=auto;html=1;exitX=1;exitY=0.5;exitDx=0;exitDy=0;entryX=0;entryY=0.5;entryDx=0;entryDy=0;" edge="1" parent="1" source="UMcilBQ5tU9RGvbNpatL-5" target="UMcilBQ5tU9RGvbNpatL-1">
          <mxGeometry relative="1" as="geometry" />
        </mxCell>
        <mxCell id="UMcilBQ5tU9RGvbNpatL-5" value="" style="shape=process;whiteSpace=wrap;html=1;backgroundOutline=1;" vertex="1" parent="1">
          <mxGeometry x="210" y="440" width="120" height="60" as="geometry" />
        </mxCell>
        <mxCell id="UMcilBQ5tU9RGvbNpatL-6" value="Tones Epoching" style="text;html=1;strokeColor=none;fillColor=none;align=center;verticalAlign=middle;whiteSpace=wrap;rounded=0;" vertex="1" parent="1">
          <mxGeometry x="240" y="455" width="60" height="30" as="geometry" />
        </mxCell>
        <mxCell id="UMcilBQ5tU9RGvbNpatL-8" value="Auditory stimuli phase EEG data" style="text;html=1;strokeColor=none;fillColor=none;align=center;verticalAlign=middle;whiteSpace=wrap;rounded=0;" vertex="1" parent="1">
          <mxGeometry x="70" y="500" width="60" height="30" as="geometry" />
        </mxCell>
        <mxCell id="UMcilBQ5tU9RGvbNpatL-23" style="edgeStyle=orthogonalEdgeStyle;rounded=0;orthogonalLoop=1;jettySize=auto;html=1;exitX=1;exitY=0.5;exitDx=0;exitDy=0;entryX=0;entryY=0.5;entryDx=0;entryDy=0;" edge="1" parent="1" source="UMcilBQ5tU9RGvbNpatL-10" target="UMcilBQ5tU9RGvbNpatL-17">
          <mxGeometry relative="1" as="geometry" />
        </mxCell>
        <mxCell id="UMcilBQ5tU9RGvbNpatL-10" value="Standard Tone Epochs" style="rounded=1;whiteSpace=wrap;html=1;" vertex="1" parent="1">
          <mxGeometry x="600" y="340" width="120" height="60" as="geometry" />
        </mxCell>
        <mxCell id="UMcilBQ5tU9RGvbNpatL-24" style="edgeStyle=orthogonalEdgeStyle;rounded=0;orthogonalLoop=1;jettySize=auto;html=1;exitX=1;exitY=0.5;exitDx=0;exitDy=0;entryX=0;entryY=0.5;entryDx=0;entryDy=0;" edge="1" parent="1" source="UMcilBQ5tU9RGvbNpatL-12" target="UMcilBQ5tU9RGvbNpatL-19">
          <mxGeometry relative="1" as="geometry" />
        </mxCell>
        <mxCell id="UMcilBQ5tU9RGvbNpatL-12" value="Deviant Tone Class 1 Epochs" style="rounded=1;whiteSpace=wrap;html=1;" vertex="1" parent="1">
          <mxGeometry x="600" y="440" width="120" height="60" as="geometry" />
        </mxCell>
        <mxCell id="UMcilBQ5tU9RGvbNpatL-14" value="" style="endArrow=none;dashed=1;html=1;dashPattern=1 3;strokeWidth=2;rounded=0;entryX=0.5;entryY=1;entryDx=0;entryDy=0;" edge="1" parent="1" target="UMcilBQ5tU9RGvbNpatL-12">
          <mxGeometry width="50" height="50" relative="1" as="geometry">
            <mxPoint x="660" y="580" as="sourcePoint" />
            <mxPoint x="440" y="420" as="targetPoint" />
          </mxGeometry>
        </mxCell>
        <mxCell id="UMcilBQ5tU9RGvbNpatL-25" style="edgeStyle=orthogonalEdgeStyle;rounded=0;orthogonalLoop=1;jettySize=auto;html=1;exitX=1;exitY=0.5;exitDx=0;exitDy=0;entryX=0;entryY=0.5;entryDx=0;entryDy=0;" edge="1" parent="1" source="UMcilBQ5tU9RGvbNpatL-16" target="UMcilBQ5tU9RGvbNpatL-21">
          <mxGeometry relative="1" as="geometry" />
        </mxCell>
        <mxCell id="UMcilBQ5tU9RGvbNpatL-16" value="Deviant Tone Class N Epochs" style="rounded=1;whiteSpace=wrap;html=1;" vertex="1" parent="1">
          <mxGeometry x="600" y="585" width="120" height="60" as="geometry" />
        </mxCell>
        <mxCell id="UMcilBQ5tU9RGvbNpatL-29" style="edgeStyle=orthogonalEdgeStyle;rounded=0;orthogonalLoop=1;jettySize=auto;html=1;exitX=1;exitY=0.5;exitDx=0;exitDy=0;entryX=0.558;entryY=0.017;entryDx=0;entryDy=0;entryPerimeter=0;" edge="1" parent="1" source="UMcilBQ5tU9RGvbNpatL-17" target="UMcilBQ5tU9RGvbNpatL-27">
          <mxGeometry relative="1" as="geometry" />
        </mxCell>
        <mxCell id="UMcilBQ5tU9RGvbNpatL-17" value="" style="shape=process;whiteSpace=wrap;html=1;backgroundOutline=1;" vertex="1" parent="1">
          <mxGeometry x="820" y="340" width="120" height="60" as="geometry" />
        </mxCell>
        <mxCell id="UMcilBQ5tU9RGvbNpatL-18" value="Averaging" style="text;html=1;strokeColor=none;fillColor=none;align=center;verticalAlign=middle;whiteSpace=wrap;rounded=0;" vertex="1" parent="1">
          <mxGeometry x="850" y="355" width="60" height="30" as="geometry" />
        </mxCell>
        <mxCell id="UMcilBQ5tU9RGvbNpatL-30" style="edgeStyle=orthogonalEdgeStyle;rounded=0;orthogonalLoop=1;jettySize=auto;html=1;exitX=1;exitY=0.5;exitDx=0;exitDy=0;entryX=0;entryY=0.5;entryDx=0;entryDy=0;" edge="1" parent="1" source="UMcilBQ5tU9RGvbNpatL-19" target="UMcilBQ5tU9RGvbNpatL-27">
          <mxGeometry relative="1" as="geometry" />
        </mxCell>
        <mxCell id="UMcilBQ5tU9RGvbNpatL-19" value="" style="shape=process;whiteSpace=wrap;html=1;backgroundOutline=1;" vertex="1" parent="1">
          <mxGeometry x="820" y="440" width="120" height="60" as="geometry" />
        </mxCell>
        <mxCell id="UMcilBQ5tU9RGvbNpatL-20" value="Averaging" style="text;html=1;strokeColor=none;fillColor=none;align=center;verticalAlign=middle;whiteSpace=wrap;rounded=0;" vertex="1" parent="1">
          <mxGeometry x="850" y="455" width="60" height="30" as="geometry" />
        </mxCell>
        <mxCell id="UMcilBQ5tU9RGvbNpatL-31" style="edgeStyle=orthogonalEdgeStyle;rounded=0;orthogonalLoop=1;jettySize=auto;html=1;exitX=1;exitY=0.5;exitDx=0;exitDy=0;entryX=0.5;entryY=1;entryDx=0;entryDy=0;" edge="1" parent="1" source="UMcilBQ5tU9RGvbNpatL-21" target="UMcilBQ5tU9RGvbNpatL-27">
          <mxGeometry relative="1" as="geometry" />
        </mxCell>
        <mxCell id="UMcilBQ5tU9RGvbNpatL-21" value="" style="shape=process;whiteSpace=wrap;html=1;backgroundOutline=1;" vertex="1" parent="1">
          <mxGeometry x="820" y="585" width="120" height="60" as="geometry" />
        </mxCell>
        <mxCell id="UMcilBQ5tU9RGvbNpatL-22" value="Averaging" style="text;html=1;strokeColor=none;fillColor=none;align=center;verticalAlign=middle;whiteSpace=wrap;rounded=0;" vertex="1" parent="1">
          <mxGeometry x="850" y="600" width="60" height="30" as="geometry" />
        </mxCell>
        <mxCell id="UMcilBQ5tU9RGvbNpatL-26" value="" style="endArrow=none;dashed=1;html=1;dashPattern=1 3;strokeWidth=2;rounded=0;entryX=0.5;entryY=1;entryDx=0;entryDy=0;" edge="1" parent="1">
          <mxGeometry width="50" height="50" relative="1" as="geometry">
            <mxPoint x="879.5" y="580" as="sourcePoint" />
            <mxPoint x="879.5" y="500" as="targetPoint" />
          </mxGeometry>
        </mxCell>
        <mxCell id="UMcilBQ5tU9RGvbNpatL-34" style="edgeStyle=orthogonalEdgeStyle;rounded=0;orthogonalLoop=1;jettySize=auto;html=1;exitX=1;exitY=0.5;exitDx=0;exitDy=0;entryX=0;entryY=0.5;entryDx=0;entryDy=0;" edge="1" parent="1" source="UMcilBQ5tU9RGvbNpatL-27" target="UMcilBQ5tU9RGvbNpatL-32">
          <mxGeometry relative="1" as="geometry">
            <mxPoint x="1330" y="420" as="targetPoint" />
          </mxGeometry>
        </mxCell>
        <mxCell id="UMcilBQ5tU9RGvbNpatL-35" style="edgeStyle=orthogonalEdgeStyle;rounded=0;orthogonalLoop=1;jettySize=auto;html=1;exitX=1;exitY=0.5;exitDx=0;exitDy=0;entryX=0;entryY=0.5;entryDx=0;entryDy=0;" edge="1" parent="1" source="UMcilBQ5tU9RGvbNpatL-27" target="UMcilBQ5tU9RGvbNpatL-33">
          <mxGeometry relative="1" as="geometry" />
        </mxCell>
        <mxCell id="UMcilBQ5tU9RGvbNpatL-27" value="" style="shape=process;whiteSpace=wrap;html=1;backgroundOutline=1;" vertex="1" parent="1">
          <mxGeometry x="1080" y="440" width="120" height="60" as="geometry" />
        </mxCell>
        <mxCell id="UMcilBQ5tU9RGvbNpatL-28" value="Deviants minus standard" style="text;html=1;strokeColor=none;fillColor=none;align=center;verticalAlign=middle;whiteSpace=wrap;rounded=0;" vertex="1" parent="1">
          <mxGeometry x="1110" y="455" width="60" height="30" as="geometry" />
        </mxCell>
        <mxCell id="UMcilBQ5tU9RGvbNpatL-32" value="Deviant Tone Class 1 MMN waveform" style="text;html=1;strokeColor=none;fillColor=none;align=center;verticalAlign=middle;whiteSpace=wrap;rounded=0;" vertex="1" parent="1">
          <mxGeometry x="1340" y="385" width="110" height="45" as="geometry" />
        </mxCell>
        <mxCell id="UMcilBQ5tU9RGvbNpatL-33" value="Deviant Tone Class N MMN waveform" style="text;html=1;strokeColor=none;fillColor=none;align=center;verticalAlign=middle;whiteSpace=wrap;rounded=0;" vertex="1" parent="1">
          <mxGeometry x="1340" y="520" width="110" height="45" as="geometry" />
        </mxCell>
        <mxCell id="UMcilBQ5tU9RGvbNpatL-36" value="" style="endArrow=none;dashed=1;html=1;dashPattern=1 3;strokeWidth=2;rounded=0;entryX=0.5;entryY=1;entryDx=0;entryDy=0;exitX=0.5;exitY=0;exitDx=0;exitDy=0;" edge="1" parent="1" source="UMcilBQ5tU9RGvbNpatL-33" target="UMcilBQ5tU9RGvbNpatL-32">
          <mxGeometry width="50" height="50" relative="1" as="geometry">
            <mxPoint x="1070" y="450" as="sourcePoint" />
            <mxPoint x="1120" y="400" as="targetPoint" />
          </mxGeometry>
        </mxCell>
      </root>
    </mxGraphModel>
  </diagram>
</mxfile>
